<svg width="19" height="18" viewBox="0 0 19 18" fill="none" xmlns="http://www.w3.org/2000/svg">
<g clip-path="url(#clip0_35_130)">
<path d="M2.68066 5.05471H16.3083M14.7941 5.05471V15.1045C14.7941 15.4853 14.6346 15.8504 14.3506 16.1197C14.0667 16.3889 13.6815 16.5402 13.28 16.5402H5.70903C5.30745 16.5402 4.92231 16.3889 4.63834 16.1197C4.35438 15.8504 4.19485 15.4853 4.19485 15.1045V5.05471M6.46612 5.05471V3.61903C6.46612 3.23826 6.62565 2.87309 6.90962 2.60385C7.19358 2.33461 7.57872 2.18335 7.98031 2.18335H11.0087C11.4103 2.18335 11.7954 2.33461 12.0794 2.60385C12.3633 2.87309 12.5229 3.23826 12.5229 3.61903V5.05471" stroke="black" stroke-width="1.33333"/>
</g>
<defs>
<clipPath id="clip0_35_130">
<rect width="18.1702" height="17.2282" fill="white" transform="translate(0.409424 0.747559)"/>
</clipPath>
</defs>
</svg>
