<svg width="19" height="18" viewBox="0 0 19 18" fill="none" xmlns="http://www.w3.org/2000/svg">
<g clip-path="url(#clip0_35_115)">
<path d="M2.71802 5.05471H16.3457M14.8315 5.05471V15.1045C14.8315 15.4853 14.672 15.8504 14.388 16.1197C14.104 16.3889 13.7189 16.5402 13.3173 16.5402H5.74639C5.3448 16.5402 4.95966 16.3889 4.6757 16.1197C4.39173 15.8504 4.2322 15.4853 4.2322 15.1045V5.05471M6.50348 5.05471V3.61903C6.50348 3.23826 6.66301 2.87309 6.94697 2.60385C7.23094 2.33461 7.61608 2.18335 8.01766 2.18335H11.046C11.4476 2.18335 11.8328 2.33461 12.1167 2.60385C12.4007 2.87309 12.5602 3.23826 12.5602 3.61903V5.05471" stroke="black" stroke-width="1.33333"/>
</g>
<defs>
<clipPath id="clip0_35_115">
<rect width="18.1702" height="17.2282" fill="white" transform="translate(0.446777 0.747559)"/>
</clipPath>
</defs>
</svg>
