<svg width="19" height="18" viewBox="0 0 19 18" fill="none" xmlns="http://www.w3.org/2000/svg">
<g clip-path="url(#clip0_35_175)">
<path d="M2.68066 4.47317H16.3083M14.7941 4.47317V14.5229C14.7941 14.9037 14.6346 15.2689 14.3506 15.5381C14.0667 15.8074 13.6815 15.9586 13.28 15.9586H5.70903C5.30745 15.9586 4.92231 15.8074 4.63834 15.5381C4.35438 15.2689 4.19485 14.9037 4.19485 14.5229V4.47317M6.46612 4.47317V3.03749C6.46612 2.65672 6.62565 2.29155 6.90962 2.02231C7.19358 1.75307 7.57872 1.60181 7.98031 1.60181H11.0087C11.4103 1.60181 11.7954 1.75307 12.0794 2.02231C12.3633 2.29155 12.5229 2.65672 12.5229 3.03749V4.47317" stroke="black" stroke-width="1.33333"/>
</g>
<defs>
<clipPath id="clip0_35_175">
<rect width="18.1702" height="17.2282" fill="white" transform="translate(0.409424 0.166016)"/>
</clipPath>
</defs>
</svg>
