<svg width="23" height="25" viewBox="0 0 23 25" fill="none" xmlns="http://www.w3.org/2000/svg">
<path d="M17.9243 11.6029C17.9243 13.4154 17.2286 15.1539 15.9902 16.4355C14.7517 17.7173 13.072 18.4374 11.3206 18.4374M11.3206 18.4374C9.56914 18.4374 7.88945 17.7173 6.651 16.4355C5.41255 15.1539 4.7168 13.4154 4.7168 11.6029M11.3206 18.4374V22.3427M11.3206 22.3427H7.54699M11.3206 22.3427H15.0941M11.3206 14.5319C10.57 14.5319 9.85009 14.2234 9.31933 13.674C8.78857 13.1247 8.49039 12.3797 8.49039 11.6029V5.74474C8.49039 4.9679 8.78857 4.22288 9.31933 3.67357C9.85009 3.12427 10.57 2.81567 11.3206 2.81567C12.0711 2.81567 12.791 3.12427 13.3219 3.67357C13.8526 4.22288 14.1508 4.9679 14.1508 5.74474V11.6029C14.1508 12.3797 13.8526 13.1247 13.3219 13.674C12.791 14.2234 12.0711 14.5319 11.3206 14.5319Z" stroke="black" stroke-width="2" stroke-linecap="round" stroke-linejoin="round"/>
</svg>
