<svg width="19" height="18" viewBox="0 0 19 18" fill="none" xmlns="http://www.w3.org/2000/svg">
<g clip-path="url(#clip0_35_70)">
<path d="M2.71802 4.40188H16.3457M14.8315 4.40188V14.4517C14.8315 14.8324 14.672 15.1976 14.388 15.4668C14.104 15.7361 13.7189 15.8873 13.3173 15.8873H5.74639C5.3448 15.8873 4.95966 15.7361 4.6757 15.4668C4.39173 15.1976 4.2322 14.8324 4.2322 14.4517V4.40188M6.50348 4.40188V2.9662C6.50348 2.58543 6.66301 2.22026 6.94697 1.95102C7.23094 1.68178 7.61608 1.53052 8.01766 1.53052H11.046C11.4476 1.53052 11.8328 1.68178 12.1167 1.95102C12.4007 2.22026 12.5602 2.58543 12.5602 2.9662V4.40188" stroke="black" stroke-width="1.33333"/>
</g>
<defs>
<clipPath id="clip0_35_70">
<rect width="18.1702" height="17.2282" fill="white" transform="translate(0.446777 0.0947266)"/>
</clipPath>
</defs>
</svg>
