<svg width="36" height="34" viewBox="0 0 36 34" fill="none" xmlns="http://www.w3.org/2000/svg">
<path d="M31.166 18.3576C30.9346 20.7316 29.995 22.994 28.457 24.8801C26.9189 26.7663 24.8462 28.1981 22.4813 29.0079C20.1163 29.8179 17.5571 29.9725 15.1029 29.4536C12.6486 28.9348 10.4011 27.7639 8.62301 26.0781C6.84501 24.3923 5.61014 22.2613 5.06292 19.9342C4.51568 17.6073 4.67873 15.1806 5.53295 12.9384C6.38718 10.696 7.89727 8.73075 9.88649 7.27248C11.8758 5.8142 14.2619 4.92324 16.7657 4.70386C15.2998 6.58423 14.5944 8.90102 14.7778 11.2328C14.9612 13.5647 16.0213 15.7566 17.7651 17.4101C19.5089 19.0635 21.8207 20.0686 24.28 20.2424C26.7394 20.4163 29.1828 19.7475 31.166 18.3576Z" fill="#4318D1"/>
</svg>
