<svg width="19" height="18" viewBox="0 0 19 18" fill="none" xmlns="http://www.w3.org/2000/svg">
<g clip-path="url(#clip0_35_55)">
<path d="M2.61963 4.40188H16.2473M14.7331 4.40188V14.4517C14.7331 14.8324 14.5736 15.1976 14.2896 15.4668C14.0056 15.7361 13.6205 15.8873 13.2189 15.8873H5.648C5.24641 15.8873 4.86127 15.7361 4.57731 15.4668C4.29334 15.1976 4.13381 14.8324 4.13381 14.4517V4.40188M6.40509 4.40188V2.9662C6.40509 2.58543 6.56462 2.22026 6.84858 1.95102C7.13255 1.68178 7.51769 1.53052 7.91927 1.53052H10.9476C11.3492 1.53052 11.7344 1.68178 12.0183 1.95102C12.3023 2.22026 12.4618 2.58543 12.4618 2.9662V4.40188" stroke="black" stroke-width="1.33333"/>
</g>
<defs>
<clipPath id="clip0_35_55">
<rect width="18.1702" height="17.2282" fill="white" transform="translate(0.348389 0.0947266)"/>
</clipPath>
</defs>
</svg>
