<svg width="37" height="35" viewBox="0 0 37 35" fill="none" xmlns="http://www.w3.org/2000/svg">
<path d="M32.0532 18.8976C31.815 21.3414 30.8477 23.6704 29.2645 25.612C27.6812 27.5536 25.5475 29.0275 23.113 29.8612C20.6785 30.695 18.044 30.8541 15.5176 30.32C12.9912 29.7859 10.6775 28.5806 8.84716 26.8452C7.01687 25.1098 5.74568 22.9161 5.18236 20.5206C4.61903 18.1252 4.78687 15.6272 5.66622 13.319C6.54557 11.0107 8.10007 8.98762 10.1478 7.48646C12.1956 5.98529 14.6519 5.06813 17.2293 4.84229C15.7203 6.77797 14.9942 9.1629 15.183 11.5633C15.3718 13.9637 16.463 16.2201 18.2581 17.9222C20.0532 19.6243 22.433 20.6589 24.9647 20.8379C27.4964 21.0169 30.0117 20.3284 32.0532 18.8976Z" fill="#4318D1"/>
</svg>
