<svg width="19" height="18" viewBox="0 0 19 18" fill="none" xmlns="http://www.w3.org/2000/svg">
<g clip-path="url(#clip0_35_145)">
<path d="M2.61963 4.47317H16.2473M14.7331 4.47317V14.5229C14.7331 14.9037 14.5736 15.2689 14.2896 15.5381C14.0056 15.8074 13.6205 15.9586 13.2189 15.9586H5.648C5.24641 15.9586 4.86127 15.8074 4.57731 15.5381C4.29334 15.2689 4.13381 14.9037 4.13381 14.5229V4.47317M6.40509 4.47317V3.03749C6.40509 2.65672 6.56462 2.29155 6.84858 2.02231C7.13255 1.75307 7.51769 1.60181 7.91927 1.60181H10.9476C11.3492 1.60181 11.7344 1.75307 12.0183 2.02231C12.3023 2.29155 12.4618 2.65672 12.4618 3.03749V4.47317" stroke="black" stroke-width="1.33333"/>
</g>
<defs>
<clipPath id="clip0_35_145">
<rect width="18.1702" height="17.2282" fill="white" transform="translate(0.348389 0.166016)"/>
</clipPath>
</defs>
</svg>
