<svg width="19" height="18" viewBox="0 0 19 18" fill="none" xmlns="http://www.w3.org/2000/svg">
<g clip-path="url(#clip0_35_85)">
<path d="M2.68066 4.40188H16.3083M14.7941 4.40188V14.4517C14.7941 14.8324 14.6346 15.1976 14.3506 15.4668C14.0667 15.7361 13.6815 15.8873 13.28 15.8873H5.70903C5.30745 15.8873 4.92231 15.7361 4.63834 15.4668C4.35438 15.1976 4.19485 14.8324 4.19485 14.4517V4.40188M6.46612 4.40188V2.9662C6.46612 2.58543 6.62565 2.22026 6.90962 1.95102C7.19358 1.68178 7.57872 1.53052 7.98031 1.53052H11.0087C11.4103 1.53052 11.7954 1.68178 12.0794 1.95102C12.3633 2.22026 12.5229 2.58543 12.5229 2.9662V4.40188" stroke="black" stroke-width="1.33333"/>
</g>
<defs>
<clipPath id="clip0_35_85">
<rect width="18.1702" height="17.2282" fill="white" transform="translate(0.409424 0.0947266)"/>
</clipPath>
</defs>
</svg>
