<svg width="46" height="45" viewBox="0 0 46 45" fill="none" xmlns="http://www.w3.org/2000/svg">
<path d="M39.4263 24.074C39.1386 27.1282 37.9705 30.039 36.0586 32.4656C34.1466 34.8922 31.57 36.7342 28.6301 37.7762C25.6902 38.8183 22.5087 39.0171 19.4578 38.3496C16.407 37.6821 13.6129 36.1757 11.4026 34.0068C9.19234 31.8379 7.65724 29.0963 6.97698 26.1024C6.2967 23.1087 6.49938 19.9867 7.56129 17.1019C8.62319 14.217 10.5004 11.6886 12.9733 9.81247C15.4462 7.93632 18.4124 6.79007 21.5249 6.50781C19.7026 8.92701 18.8258 11.9077 19.0538 14.9077C19.2818 17.9077 20.5995 20.7277 22.7673 22.8549C24.935 24.9822 27.8089 26.2753 30.8662 26.499C33.9235 26.7227 36.961 25.8622 39.4263 24.074Z" fill="#4318D1"/>
</svg>
