<svg width="19" height="18" viewBox="0 0 19 18" fill="none" xmlns="http://www.w3.org/2000/svg">
<g clip-path="url(#clip0_35_160)">
<path d="M2.71802 4.47317H16.3457M14.8315 4.47317V14.5229C14.8315 14.9037 14.672 15.2689 14.388 15.5381C14.104 15.8074 13.7189 15.9586 13.3173 15.9586H5.74639C5.3448 15.9586 4.95966 15.8074 4.6757 15.5381C4.39173 15.2689 4.2322 14.9037 4.2322 14.5229V4.47317M6.50348 4.47317V3.03749C6.50348 2.65672 6.66301 2.29155 6.94697 2.02231C7.23094 1.75307 7.61608 1.60181 8.01766 1.60181H11.046C11.4476 1.60181 11.8328 1.75307 12.1167 2.02231C12.4007 2.29155 12.5602 2.65672 12.5602 3.03749V4.47317" stroke="black" stroke-width="1.33333"/>
</g>
<defs>
<clipPath id="clip0_35_160">
<rect width="18.1702" height="17.2282" fill="white" transform="translate(0.446777 0.166016)"/>
</clipPath>
</defs>
</svg>
