<svg width="19" height="18" viewBox="0 0 19 18" fill="none" xmlns="http://www.w3.org/2000/svg">
<path d="M2.61963 4.82034H16.2473M14.7331 4.82034V14.8701C14.7331 15.2509 14.5736 15.616 14.2896 15.8853C14.0056 16.1545 13.6205 16.3058 13.2189 16.3058H5.648C5.24641 16.3058 4.86127 16.1545 4.57731 15.8853C4.29334 15.616 4.13381 15.2509 4.13381 14.8701V4.82034M6.40509 4.82034V3.38466C6.40509 3.00389 6.56462 2.63872 6.84858 2.36948C7.13255 2.10023 7.51769 1.94897 7.91927 1.94897H10.9476C11.3492 1.94897 11.7344 2.10023 12.0183 2.36948C12.3023 2.63872 12.4618 3.00389 12.4618 3.38466V4.82034" stroke="black" stroke-width="1.33333"/>
</svg>
