<svg width="19" height="20" viewBox="0 0 19 20" fill="none" xmlns="http://www.w3.org/2000/svg">
<path d="M7.99978 3.74452H3.28279C2.78238 3.74452 2.30247 3.95025 1.94863 4.31645C1.59479 4.68266 1.396 5.17934 1.396 5.69723V16.4372C1.396 16.955 1.59479 17.4517 1.94863 17.8179C2.30247 18.184 2.78238 18.3898 3.28279 18.3898H13.6602C14.1606 18.3898 14.6404 18.184 14.9943 17.8179C15.3481 17.4517 15.5469 16.955 15.5469 16.4372V11.5553M14.213 2.36396C14.3871 2.17745 14.5953 2.02869 14.8254 1.92635C15.0556 1.82402 15.3032 1.77015 15.5537 1.7679C15.8042 1.76564 16.0527 1.81504 16.2846 1.91322C16.5165 2.01141 16.7271 2.15641 16.9043 2.33975C17.0814 2.5231 17.2216 2.74112 17.3164 2.9811C17.4113 3.22109 17.4591 3.47821 17.4568 3.73749C17.4547 3.99677 17.4026 4.25301 17.3038 4.49124C17.2048 4.72948 17.0612 4.94496 16.8809 5.12508L8.78091 13.5081H6.11298V10.7469L14.213 2.36396Z" stroke="#FFFEFE" stroke-width="2" stroke-linecap="round" stroke-linejoin="round"/>
</svg>
